<svg xmlns="http://www.w3.org/2000/svg" viewBox="0 0 811.2 144" width="811.2" height="144" role="img" aria-label="IFC Atlas">
<rect x="43.2" y="0" width="28.8" height="14.4" fill="#000000"/>
<rect x="28.8" y="14.4" width="57.6" height="14.4" fill="#0a0a0a"/>
<rect x="14.4" y="28.8" width="28.8" height="14.4" fill="#141414"/>
<rect x="72" y="28.8" width="28.8" height="14.4" fill="#141414"/>
<rect x="14.4" y="43.2" width="28.8" height="14.4" fill="#1f1f1f"/>
<rect x="72" y="43.2" width="28.8" height="14.4" fill="#1f1f1f"/>
<rect x="0" y="57.6" width="28.8" height="14.4" fill="#292929"/>
<rect x="28.8" y="57.6" width="57.6" height="14.4" fill="#0070f3"/>
<rect x="86.4" y="57.6" width="28.8" height="14.4" fill="#292929"/>
<rect x="0" y="72" width="28.8" height="14.4" fill="#333333"/>
<rect x="28.8" y="72" width="57.6" height="14.4" fill="#0070f3"/>
<rect x="86.4" y="72" width="28.8" height="14.4" fill="#333333"/>
<rect x="0" y="86.4" width="28.8" height="14.4" fill="#3d3d3d"/>
<rect x="86.4" y="86.4" width="28.8" height="14.4" fill="#3d3d3d"/>
<rect x="0" y="100.8" width="28.8" height="14.4" fill="#484848"/>
<rect x="86.4" y="100.8" width="28.8" height="14.4" fill="#484848"/>
<rect x="0" y="115.2" width="28.8" height="14.4" fill="#525252"/>
<rect x="86.4" y="115.2" width="28.8" height="14.4" fill="#525252"/>
<rect x="0" y="129.6" width="28.8" height="14.4" fill="#5c5c5c"/>
<rect x="86.4" y="129.6" width="28.8" height="14.4" fill="#5c5c5c"/>
<rect x="155.2" y="32" width="64" height="8" fill="#000000"/>
<rect x="155.2" y="40" width="64" height="8" fill="#060606"/>
<rect x="179.2" y="48" width="16" height="8" fill="#0b0b0b"/>
<rect x="179.2" y="56" width="16" height="8" fill="#111111"/>
<rect x="179.2" y="64" width="16" height="8" fill="#171717"/>
<rect x="179.2" y="72" width="16" height="8" fill="#1c1c1c"/>
<rect x="179.2" y="80" width="16" height="8" fill="#222222"/>
<rect x="179.2" y="88" width="16" height="8" fill="#282828"/>
<rect x="155.2" y="96" width="64" height="8" fill="#2d2d2d"/>
<rect x="155.2" y="104" width="64" height="8" fill="#333333"/>
<rect x="235.2" y="32" width="64" height="8" fill="#000000"/>
<rect x="235.2" y="40" width="64" height="8" fill="#060606"/>
<rect x="235.2" y="48" width="16" height="8" fill="#0b0b0b"/>
<rect x="235.2" y="56" width="16" height="8" fill="#111111"/>
<rect x="235.2" y="64" width="48" height="8" fill="#171717"/>
<rect x="235.2" y="72" width="48" height="8" fill="#1c1c1c"/>
<rect x="235.2" y="80" width="16" height="8" fill="#222222"/>
<rect x="235.2" y="88" width="16" height="8" fill="#282828"/>
<rect x="235.2" y="96" width="16" height="8" fill="#2d2d2d"/>
<rect x="235.2" y="104" width="16" height="8" fill="#333333"/>
<rect x="323.2" y="32" width="48" height="8" fill="#000000"/>
<rect x="315.2" y="40" width="64" height="8" fill="#060606"/>
<rect x="315.2" y="48" width="16" height="8" fill="#0b0b0b"/>
<rect x="363.2" y="48" width="16" height="8" fill="#0b0b0b"/>
<rect x="315.2" y="56" width="16" height="8" fill="#111111"/>
<rect x="315.2" y="64" width="16" height="8" fill="#171717"/>
<rect x="315.2" y="72" width="16" height="8" fill="#1c1c1c"/>
<rect x="315.2" y="80" width="16" height="8" fill="#222222"/>
<rect x="315.2" y="88" width="16" height="8" fill="#282828"/>
<rect x="363.2" y="88" width="16" height="8" fill="#282828"/>
<rect x="315.2" y="96" width="64" height="8" fill="#2d2d2d"/>
<rect x="323.2" y="104" width="48" height="8" fill="#333333"/>
<rect x="451.2" y="32" width="16" height="8" fill="#000000"/>
<rect x="443.2" y="40" width="32" height="8" fill="#060606"/>
<rect x="435.2" y="48" width="16" height="8" fill="#0b0b0b"/>
<rect x="467.2" y="48" width="16" height="8" fill="#0b0b0b"/>
<rect x="435.2" y="56" width="16" height="8" fill="#111111"/>
<rect x="467.2" y="56" width="16" height="8" fill="#111111"/>
<rect x="427.2" y="64" width="64" height="8" fill="#171717"/>
<rect x="427.2" y="72" width="64" height="8" fill="#1c1c1c"/>
<rect x="427.2" y="80" width="16" height="8" fill="#222222"/>
<rect x="475.2" y="80" width="16" height="8" fill="#222222"/>
<rect x="427.2" y="88" width="16" height="8" fill="#282828"/>
<rect x="475.2" y="88" width="16" height="8" fill="#282828"/>
<rect x="427.2" y="96" width="16" height="8" fill="#2d2d2d"/>
<rect x="475.2" y="96" width="16" height="8" fill="#2d2d2d"/>
<rect x="427.2" y="104" width="16" height="8" fill="#333333"/>
<rect x="475.2" y="104" width="16" height="8" fill="#333333"/>
<rect x="507.2" y="32" width="64" height="8" fill="#000000"/>
<rect x="507.2" y="40" width="64" height="8" fill="#060606"/>
<rect x="531.2" y="48" width="16" height="8" fill="#0b0b0b"/>
<rect x="531.2" y="56" width="16" height="8" fill="#111111"/>
<rect x="531.2" y="64" width="16" height="8" fill="#171717"/>
<rect x="531.2" y="72" width="16" height="8" fill="#1c1c1c"/>
<rect x="531.2" y="80" width="16" height="8" fill="#222222"/>
<rect x="531.2" y="88" width="16" height="8" fill="#282828"/>
<rect x="531.2" y="96" width="16" height="8" fill="#2d2d2d"/>
<rect x="531.2" y="104" width="16" height="8" fill="#333333"/>
<rect x="587.2" y="32" width="16" height="8" fill="#000000"/>
<rect x="587.2" y="40" width="16" height="8" fill="#060606"/>
<rect x="587.2" y="48" width="16" height="8" fill="#0b0b0b"/>
<rect x="587.2" y="56" width="16" height="8" fill="#111111"/>
<rect x="587.2" y="64" width="16" height="8" fill="#171717"/>
<rect x="587.2" y="72" width="16" height="8" fill="#1c1c1c"/>
<rect x="587.2" y="80" width="16" height="8" fill="#222222"/>
<rect x="587.2" y="88" width="16" height="8" fill="#282828"/>
<rect x="587.2" y="96" width="64" height="8" fill="#2d2d2d"/>
<rect x="587.2" y="104" width="64" height="8" fill="#333333"/>
<rect x="691.2" y="32" width="16" height="8" fill="#000000"/>
<rect x="683.2" y="40" width="32" height="8" fill="#060606"/>
<rect x="675.2" y="48" width="16" height="8" fill="#0b0b0b"/>
<rect x="707.2" y="48" width="16" height="8" fill="#0b0b0b"/>
<rect x="675.2" y="56" width="16" height="8" fill="#111111"/>
<rect x="707.2" y="56" width="16" height="8" fill="#111111"/>
<rect x="667.2" y="64" width="64" height="8" fill="#171717"/>
<rect x="667.2" y="72" width="64" height="8" fill="#1c1c1c"/>
<rect x="667.2" y="80" width="16" height="8" fill="#222222"/>
<rect x="715.2" y="80" width="16" height="8" fill="#222222"/>
<rect x="667.2" y="88" width="16" height="8" fill="#282828"/>
<rect x="715.2" y="88" width="16" height="8" fill="#282828"/>
<rect x="667.2" y="96" width="16" height="8" fill="#2d2d2d"/>
<rect x="715.2" y="96" width="16" height="8" fill="#2d2d2d"/>
<rect x="667.2" y="104" width="16" height="8" fill="#333333"/>
<rect x="715.2" y="104" width="16" height="8" fill="#333333"/>
<rect x="755.2" y="32" width="48" height="8" fill="#000000"/>
<rect x="747.2" y="40" width="64" height="8" fill="#060606"/>
<rect x="747.2" y="48" width="16" height="8" fill="#0b0b0b"/>
<rect x="747.2" y="56" width="16" height="8" fill="#111111"/>
<rect x="755.2" y="64" width="48" height="8" fill="#171717"/>
<rect x="755.2" y="72" width="48" height="8" fill="#1c1c1c"/>
<rect x="795.2" y="80" width="16" height="8" fill="#222222"/>
<rect x="795.2" y="88" width="16" height="8" fill="#282828"/>
<rect x="747.2" y="96" width="64" height="8" fill="#2d2d2d"/>
<rect x="755.2" y="104" width="48" height="8" fill="#333333"/>
</svg>
